<svg width="24" height="24" viewBox="0 0 24 24" fill="none" xmlns="http://www.w3.org/2000/svg">
				<path d="M23.25 12C23.25 18.4219 18 23.625 11.5781 23.625C6.23438 23.625 1.78125 20.0625 0.375 15.1875L4.82812 17.0156C5.15625 18.5156 6.46875 19.6875 8.0625 19.6875C9.89062 19.6875 11.4375 18.1406 11.3438 16.2188L15.3281 13.4062C17.7656 13.4531 19.8281 11.4844 19.8281 9.04688C19.8281 6.60938 17.8594 4.64062 15.4219 4.64062C12.9844 4.64062 11.0156 6.60938 11.0156 9.04688V9.09375L8.25 13.0781C7.54688 13.0781 6.79688 13.2656 6.23438 13.6875L0 11.1094C0.46875 5.10938 5.48438 0.375 11.5781 0.375C18 0.375 23.25 5.57812 23.25 12ZM7.26562 18.0469L5.85938 17.4375C6.09375 18 6.5625 18.4219 7.125 18.6562C8.39062 19.1719 9.84375 18.5625 10.3594 17.3438C10.5938 16.7344 10.5938 16.0312 10.3594 15.4219C10.125 14.8125 9.65625 14.3438 9.04688 14.1094C8.4375 13.8281 7.78125 13.8281 7.21875 14.0625L8.67188 14.6719C9.60938 15.0469 10.0312 16.125 9.65625 17.0625C9.28125 18 8.20312 18.4219 7.26562 18.0469ZM15.4219 11.9531C13.8281 11.9531 12.5156 10.6406 12.5156 9.04688C12.5156 7.40625 13.8281 6.09375 15.4219 6.09375C17.0156 6.09375 18.3281 7.40625 18.3281 9.04688C18.3281 10.6406 17.0625 11.9531 15.4219 11.9531ZM15.4219 11.2031C16.6406 11.2031 17.625 10.2188 17.625 9C17.625 7.82812 16.6406 6.84375 15.4219 6.84375C14.2031 6.84375 13.2188 7.82812 13.2188 9C13.2188 10.2188 14.2031 11.2031 15.4219 11.2031Z" fill="#2A555C"></path>
			</svg>